<svg xmlns="http://www.w3.org/2000/svg" xmlns:xlink="http://www.w3.org/1999/xlink" version="1.1" x="0px" y="0px" viewBox="0 0 100 125" enable-background="new 0 0 100 100" xml:space="preserve"><path d="M56.668,94.782c0.454-0.051,0.905-0.133,1.352-0.258c2.598-0.719,4.853-2.519,6.827-4.29  c4.081-3.659,9.852-10.414,16.606-22.799s7.389-22.799,4.644-30.433c-2.744-7.635-8.865-12.49-15.621-13.757  c-4.45-0.834-9.206-0.833-13.501,0.713c-1.221,0.44-2.438,0.934-3.696,1.26c-2.512,0.651-5.271,0.576-7.742-0.222  c-1.858-0.6-3.581-1.369-5.506-1.769c-2.125-0.441-4.307-0.584-6.474-0.499c-1.459,0.057-2.928,0.248-4.364,0.517  c-6.755,1.267-12.877,6.122-15.621,13.757c-2.745,7.634-2.111,18.048,4.644,30.433s12.525,19.14,16.606,22.799  c4.056,3.637,6.444,4.215,6.474,4.223c2.434,0.58,4.674,0.503,7.099-0.209c0.427-0.125,1.015-0.492,1.464-0.462  c0.587,0.041,1.296,0.423,1.888,0.555C53.355,94.705,55.027,94.962,56.668,94.782z"/><path d="M51.02,11.616c3.309-4.898,10.411-6.221,10.411-6.221s1.745,6.622-1.563,11.522c-3.308,4.901-10.413,6.222-10.413,6.222  S47.712,16.515,51.02,11.616z"/><text x="0" y="115" fill="#000000" font-size="5px" font-weight="bold" font-family="'Helvetica Neue', Helvetica, Arial-Unicode, Arial, Sans-serif">Created by Tobias Wibbeke</text><text x="0" y="120" fill="#000000" font-size="5px" font-weight="bold" font-family="'Helvetica Neue', Helvetica, Arial-Unicode, Arial, Sans-serif">from the Noun Project</text></svg>