<svg class="svg-icon" style="width: 1em; height: 1em;vertical-align: middle;fill: currentColor;overflow: hidden;" viewBox="0 0 1024 1024" version="1.1" xmlns="http://www.w3.org/2000/svg"><path d="M36.96 540.624A36.576 36.576 0 0 0 0.016 577.568v221.648a36.944 36.944 0 1 0 73.888 0V577.568a36.576 36.576 0 0 0-36.944-36.944z"  /><path d="M555.6 480.048a36.576 36.576 0 0 0-36.944 36.944v114.512h-308.8v-114.512a36.944 36.944 0 1 0-73.888 0v342.064a36.944 36.944 0 0 0 73.888 0v-153.6H517.936v153.6a36.944 36.944 0 0 0 73.888 0V516.992a36.416 36.416 0 0 0-36.224-36.944z"  /><path d="M693.088 540.624a36.576 36.576 0 0 0-36.944 36.944v221.648a36.944 36.944 0 1 0 73.888 0V577.568a37.056 37.056 0 0 0-36.944-36.944z"  /><path d="M331.696 483.36a36.576 36.576 0 0 0 36.944-36.944V224.784a36.944 36.944 0 1 0-73.888 0v221.648a36.576 36.576 0 0 0 36.944 36.928z"  /><path d="M851.136 128a36.576 36.576 0 0 0-36.944 36.944v114.512H506.112v-114.512a36.944 36.944 0 1 0-73.888 0v342.064a36.944 36.944 0 1 0 73.888 0v-153.6h308.08v153.6a36.944 36.944 0 1 0 73.888 0V164.944A36.576 36.576 0 0 0 851.136 128z"  /><path d="M987.072 188.576a36.576 36.576 0 0 0-36.944 36.944v221.648a36.944 36.944 0 1 0 73.888 0V225.52a36.576 36.576 0 0 0-36.944-36.944z"  /></svg>