<?xml version="1.0" standalone="no"?>
<!DOCTYPE svg PUBLIC "-//W3C//DTD SVG 20010904//EN"
 "http://www.w3.org/TR/2001/REC-SVG-20010904/DTD/svg10.dtd">
<svg version="1.0" xmlns="http://www.w3.org/2000/svg"
 width="512.000000pt" height="512.000000pt" viewBox="0 0 512.000000 512.000000"
 preserveAspectRatio="xMidYMid meet">
<metadata>
Created by potrace 1.16, written by Peter Selinger 2001-2019
</metadata>
<g transform="translate(0.000000,512.000000) scale(0.100000,-0.100000)"
fill="#000000" stroke="none">
<path d="M2430 4703 c-167 -25 -294 -51 -386 -79 -111 -33 -359 -133 -351
-141 3 -2 85 23 183 56 353 118 453 135 779 136 200 0 268 -4 340 -18 153 -30
305 -74 425 -122 156 -63 159 -63 50 -7 -243 127 -506 183 -838 181 -97 -1
-188 -3 -202 -6z"/>
<path d="M2385 4588 c-227 -19 -513 -79 -653 -137 -260 -105 -575 -350 -764
-592 -248 -319 -380 -673 -418 -1118 -12 -140 -8 -161 30 -161 23 0 30 20 30
80 0 83 30 268 65 405 64 252 173 481 321 679 350 464 819 722 1414 777 230
21 534 -7 735 -67 152 -46 177 -50 209 -29 l28 19 -34 17 c-61 31 -215 78
-325 99 -202 38 -419 48 -638 28z"/>
<path d="M3463 4420 c-43 -22 -76 -64 -88 -111 l-6 -25 -52 17 c-29 10 -68 18
-88 19 -20 0 -63 12 -94 26 -37 17 -82 29 -126 32 -59 4 -75 1 -135 -26 -38
-16 -88 -35 -112 -42 -47 -12 -115 -67 -138 -111 -17 -33 -18 -96 -3 -135 5
-16 29 -45 51 -66 l41 -38 -23 -82 c-34 -125 -34 -127 -15 -148 17 -19 17 -23
-8 -88 -15 -37 -27 -75 -27 -84 0 -19 29 -38 58 -38 18 0 19 -3 9 -30 -9 -25
-8 -35 6 -60 10 -17 15 -34 12 -40 -3 -5 1 -20 10 -33 12 -19 13 -30 5 -51
-16 -42 -12 -71 13 -93 35 -32 58 -35 141 -13 93 24 109 18 137 -47 26 -60 24
-68 -13 -94 -18 -12 -45 -33 -60 -47 -24 -22 -35 -24 -125 -25 -92 -2 -103 -4
-144 -31 -24 -16 -58 -46 -76 -66 l-31 -36 -56 10 -56 10 -19 59 c-28 82 -70
130 -148 169 -107 52 -216 43 -291 -26 -44 -39 -46 -53 -52 -311 -5 -248 -6
-250 -33 -302 -15 -29 -23 -53 -18 -53 23 0 101 120 101 154 0 14 4 14 35 -1
33 -16 46 -33 25 -33 -21 0 -120 -109 -120 -132 0 -14 -13 -33 -34 -50 -27
-21 -36 -37 -38 -65 -2 -27 -8 -39 -20 -41 -12 -2 -16 1 -12 11 7 20 -22 29
-36 11 -10 -11 -10 -14 0 -14 8 0 11 -3 7 -6 -11 -12 -200 58 -222 82 -21 23
-22 32 -20 172 1 83 7 159 13 175 18 44 15 63 -20 103 -29 33 -33 44 -32 92 2
80 78 225 195 372 50 63 104 138 120 166 20 34 47 63 82 86 105 70 335 198
354 198 19 0 148 -97 165 -124 11 -16 10 -54 -2 -61 -6 -3 -13 2 -17 12 -8 24
-102 143 -113 143 -4 0 -13 -7 -20 -15 -10 -12 -10 -15 3 -15 17 0 84 -99 94
-139 4 -18 0 -29 -17 -43 -31 -25 -43 -22 -24 7 15 23 15 26 -5 53 -43 61 -76
69 -46 11 16 -31 16 -33 0 -45 -16 -12 -23 -9 -52 16 -38 33 -53 38 -53 14 0
-8 -4 -12 -10 -9 -5 3 -10 1 -10 -5 0 -5 16 -18 35 -27 19 -9 35 -19 35 -22 0
-8 -77 -53 -115 -68 -47 -18 -111 -15 -147 7 -42 26 -72 27 -40 2 l23 -18 -25
-12 c-30 -13 -31 -18 -12 -51 12 -22 11 -29 -15 -71 -42 -69 -100 -197 -157
-345 -27 -71 -66 -166 -85 -210 -20 -43 -35 -81 -33 -82 8 -8 63 20 89 45 42
40 71 102 116 254 48 161 94 274 141 346 l35 52 110 -2 c104 -2 273 19 352 43
62 20 93 90 56 131 -13 14 -14 23 -5 42 16 36 4 63 -42 90 -22 14 -72 50 -110
80 -41 33 -79 56 -93 56 -30 0 -249 -111 -356 -180 -50 -32 -89 -66 -110 -97
-17 -25 -73 -99 -123 -162 -124 -159 -151 -200 -180 -278 -28 -75 -29 -97 -3
-368 6 -71 11 -169 10 -217 l-2 -87 38 -41 c56 -60 216 -110 304 -95 36 6 39
9 39 40 0 71 36 113 87 101 13 -4 44 -25 69 -48 50 -46 58 -82 22 -94 -27 -8
-81 -44 -75 -50 2 -2 27 5 56 17 50 21 53 21 102 5 28 -9 64 -16 80 -16 21 0
51 -20 116 -77 95 -83 232 -177 328 -225 33 -17 89 -55 125 -86 135 -114 203
-139 92 -33 -63 60 -95 114 -107 183 -8 41 19 110 55 143 18 16 18 18 -16 62
-50 66 -68 137 -61 252 6 128 33 198 101 266 33 34 69 58 101 69 28 10 73 27
100 38 108 45 214 77 294 90 87 13 83 25 -9 27 l-45 2 71 28 c39 16 91 35 115
42 54 15 72 29 38 29 -21 0 -127 -22 -171 -36 -17 -5 -18 7 -20 153 l-2 158
-6 -162 c-3 -89 -7 -163 -10 -165 -34 -28 -219 -113 -227 -105 -2 2 4 21 13
43 22 51 14 169 -16 244 -27 69 -22 94 34 173 33 46 45 72 44 97 0 19 3 49 6
65 l7 30 -15 -26 c-16 -28 -64 -67 -111 -91 l-30 -16 -2 120 -3 120 45 69 c41
63 44 72 38 116 l-5 48 66 1 c58 0 67 -2 73 -20 5 -17 8 -14 15 18 24 110 113
98 124 -16 l4 -43 -10 38 c-14 55 -28 77 -50 77 -31 0 -50 -28 -50 -76 0 -24
-5 -44 -11 -44 -6 0 -8 -8 -4 -19 3 -11 1 -22 -5 -26 -15 -9 -12 -45 4 -45 20
0 53 45 61 82 6 24 3 35 -11 45 -17 13 -17 14 0 31 16 16 18 16 32 -3 32 -43
-20 -160 -76 -172 -23 -4 -30 -11 -30 -29 0 -15 6 -24 15 -24 26 0 19 -172
-14 -382 -16 -101 -32 -214 -35 -253 -6 -69 -6 -69 9 -37 22 47 62 212 76 312
15 104 15 310 1 336 -8 15 -4 26 24 57 18 22 40 58 48 81 l14 41 1 -44 c1 -35
12 -61 55 -130 29 -47 75 -124 101 -171 63 -111 108 -179 157 -235 40 -45 40
-45 16 -54 -19 -7 -28 -3 -56 28 -18 20 -46 63 -63 96 l-30 60 7 -45 c8 -56
20 -78 66 -128 l37 -40 -29 -33 c-32 -38 -40 -61 -12 -37 57 51 148 72 186 43
20 -15 20 -15 0 -15 -37 0 -124 -52 -158 -93 -70 -86 -81 -120 -81 -242 0 -95
3 -116 23 -157 25 -49 54 -74 105 -89 l30 -9 -25 28 c-68 71 -89 163 -64 279
22 109 82 197 149 222 122 46 281 -75 337 -256 22 -72 26 -176 9 -237 -13 -45
-88 -130 -139 -156 -66 -33 -87 -33 -37 0 84 57 127 132 127 222 l0 52 -25
-51 c-34 -67 -93 -120 -191 -172 -43 -23 -104 -65 -134 -93 l-55 -51 128 7
c151 7 151 7 119 -93 -35 -107 -89 -192 -219 -343 -67 -79 -146 -176 -175
-217 -61 -86 -81 -100 -71 -49 l6 33 -32 -28 c-18 -15 -37 -27 -43 -27 -6 0
-83 -35 -172 -77 -127 -61 -171 -77 -206 -77 -62 0 -141 45 -192 108 -39 49
-77 119 -78 142 0 7 39 9 118 7 l117 -4 -37 21 c-20 11 -70 25 -110 30 -209
30 -266 60 -443 230 -132 128 -158 146 -240 161 -53 10 -60 8 -143 -27 -94
-41 -138 -45 -178 -19 -14 9 -48 23 -74 31 -43 13 -80 43 -80 66 0 4 14 23 30
42 28 31 33 66 9 66 -11 0 -69 -101 -69 -121 0 -30 41 -68 88 -83 26 -7 65
-25 86 -40 54 -36 94 -41 189 -21 133 27 140 25 219 -80 108 -143 239 -267
443 -422 163 -123 390 -249 430 -237 11 3 40 25 65 49 60 57 125 95 240 139
145 56 150 59 245 136 243 198 336 332 334 483 l0 52 -14 -36 c-33 -91 -99
-184 -148 -211 -25 -13 -18 -2 40 70 44 54 92 142 132 245 13 31 27 57 32 57
40 0 45 -164 7 -256 -53 -131 -194 -305 -328 -404 -105 -78 -84 -77 30 1 140
95 254 229 333 390 62 127 88 230 88 349 0 68 6 112 21 155 13 41 20 85 19
143 0 196 -97 360 -254 432 -87 40 -257 215 -315 325 -9 19 -7 20 52 21 37 0
75 8 96 19 96 48 155 155 132 238 -8 30 -6 43 19 92 46 91 38 197 -20 271 -21
27 -85 80 -103 86 -7 3 -4 14 8 33 42 65 6 206 -72 274 -87 77 -210 102 -291
61z m175 -89 c77 -39 125 -125 121 -214 -2 -38 3 -63 19 -94 34 -64 26 -62
-19 7 -53 78 -103 112 -175 118 -54 4 -66 16 -42 40 9 9 6 12 -16 12 -21 0
-27 4 -24 18 2 13 15 18 51 20 57 4 120 -28 161 -80 14 -18 27 -30 30 -28 2 3
-4 29 -13 58 -29 85 -87 132 -184 151 l-42 9 48 1 c29 1 62 -6 85 -18z m-820
-66 c-26 -14 -54 -35 -62 -47 -9 -12 -16 -18 -16 -12 0 22 42 64 73 73 53 15
54 11 5 -14z m143 0 c-129 -74 -191 -146 -191 -220 0 -30 -3 -36 -12 -27 -22
22 -12 102 19 145 36 51 63 71 138 102 78 32 102 32 46 0z m374 -9 c28 -13 61
-33 75 -44 l25 -22 -45 20 c-79 33 -180 45 -281 32 -48 -7 -96 -15 -106 -19
-12 -4 -15 -3 -8 4 11 12 115 50 155 57 47 8 135 -5 185 -28z m-27 -63 c-21
-2 -55 -2 -75 0 -21 2 -4 4 37 4 41 0 58 -2 38 -4z m96 -54 c23 -10 32 -17 21
-13 -108 32 -226 26 -375 -21 -45 -15 -84 -25 -86 -22 -13 13 137 63 246 81
48 8 154 -5 194 -25z m-440 -113 c31 -13 76 -59 76 -77 0 -5 -11 -9 -25 -9
-40 0 -26 -45 29 -91 27 -23 31 -33 31 -76 0 -43 -6 -56 -48 -112 l-47 -63 6
-123 7 -123 -40 -28 c-57 -42 -139 -78 -158 -70 -14 5 -16 14 -11 41 5 23 2
45 -9 64 l-15 30 40 11 c46 12 45 25 -3 35 -58 13 -68 22 -56 52 5 14 17 31
25 38 18 13 15 56 -4 63 -7 2 -10 -2 -7 -10 4 -11 -4 -14 -34 -13 -46 0 -46 2
-9 102 18 50 19 54 2 82 -17 28 -16 33 6 116 21 80 26 87 57 100 18 8 33 19
33 25 0 13 76 49 103 50 10 0 32 -6 51 -14z m585 -100 c1 -43 -8 -87 -33 -160
-19 -56 -37 -118 -41 -139 -5 -31 -9 -36 -20 -27 -7 6 -19 24 -25 41 -12 28
-9 37 40 135 47 92 54 114 58 182 6 88 19 68 21 -32z m298 -151 c-11 -116 -70
-208 -172 -266 -70 -40 -91 -36 -29 5 101 68 181 185 192 282 8 70 16 51 9
-21z m-1332 -335 c9 -27 -19 -70 -45 -70 -25 0 -27 31 -4 65 20 30 40 32 49 5z
m-174 -407 c79 -90 62 -250 -37 -345 -41 -39 -107 -68 -156 -68 -27 0 -98 24
-98 33 0 2 31 2 68 -1 79 -5 125 13 178 70 52 54 68 96 68 168 0 68 -16 112
-58 159 -20 23 -20 23 -1 13 11 -5 28 -18 36 -29z m753 -40 c21 -62 20 -96 -4
-143 -28 -55 -54 -54 -45 1 8 44 -8 94 -31 103 -11 4 -14 -11 -14 -80 l0 -84
-47 -33 c-80 -54 -148 -124 -173 -177 -13 -27 -25 -49 -26 -47 -1 1 -8 43 -14
92 -19 159 -17 152 -55 165 -19 6 -37 15 -40 20 -9 15 67 92 110 111 26 12 64
19 108 19 67 0 68 0 133 55 36 31 69 53 74 50 4 -3 15 -26 24 -52z m-505 -211
c34 -27 71 -88 86 -141 l7 -23 -47 28 c-26 15 -75 37 -109 50 -59 21 -61 23
-64 59 -2 20 -1 44 3 52 9 25 81 10 124 -25z m-2 -149 c73 -36 92 -60 105
-131 21 -115 -33 -202 -166 -267 l-71 -35 50 0 c116 -2 140 -28 175 -190 11
-52 22 -105 26 -118 5 -19 -11 -10 -92 48 -55 39 -149 113 -210 165 l-112 94
-7 57 c-9 75 -21 104 -41 104 -14 0 -15 -11 -9 -85 4 -47 3 -85 -1 -85 -35 1
-57 17 -79 59 -21 42 -114 132 -147 143 -20 7 3 47 49 85 43 35 50 38 118 39
96 1 163 32 230 106 49 54 50 55 90 46 22 -5 63 -20 92 -35z m505 -1308 c64 0
84 -3 77 -12 -16 -18 -75 -43 -103 -43 -31 0 -96 31 -116 56 -14 15 -12 16 20
8 19 -5 74 -9 122 -9z"/>
<path d="M2773 3820 c-28 -16 -54 -34 -58 -39 -11 -19 37 -51 78 -51 34 0 38
-2 27 -15 -9 -11 -9 -15 -1 -15 16 0 91 43 91 52 0 4 -20 10 -45 14 -51 7 -56
16 -20 40 16 11 35 14 57 9 l33 -6 -24 21 c-32 28 -77 25 -138 -10z"/>
<path d="M2376 4369 c-197 -17 -430 -81 -611 -168 -200 -96 -341 -198 -500
-362 -159 -164 -251 -296 -340 -482 -100 -211 -144 -377 -150 -572 -3 -119 -3
-123 5 -46 33 315 160 642 343 887 316 423 734 658 1279 721 81 9 148 20 148
25 0 9 -48 9 -174 -3z"/>
<path d="M4117 3968 c182 -184 262 -309 388 -608 117 -279 164 -454 185 -695
30 -333 -38 -613 -253 -1041 -82 -163 -244 -381 -441 -594 -49 -53 -34 -42
105 78 173 148 278 272 388 454 107 179 200 412 242 607 27 124 37 426 20 568
-46 376 -181 708 -412 1018 -68 91 -279 305 -301 305 -7 0 29 -42 79 -92z"/>
<path d="M823 3883 c-240 -310 -386 -667 -433 -1053 -16 -133 -14 -412 5 -555
20 -152 66 -345 109 -455 24 -59 36 -110 41 -165 8 -104 39 -217 76 -283 l30
-53 -58 -82 c-93 -134 -103 -149 -103 -163 0 -12 46 -14 253 -14 l254 0 24
-26 c98 -105 278 -111 381 -13 l41 39 136 1 c75 1 210 5 301 8 185 7 185 7 20
59 l-85 27 -553 3 -554 3 37 40 c34 38 129 176 137 200 2 6 22 2 53 -11 58
-25 143 -36 209 -26 39 6 49 12 57 34 6 15 28 51 50 80 22 29 49 72 60 95 21
48 24 137 6 180 -10 25 -12 16 -12 -67 0 -106 -11 -130 -77 -172 l-36 -23 33
49 c56 83 67 195 28 275 -31 62 -122 135 -167 135 -24 0 -5 37 29 60 l30 20
-42 0 c-106 0 -220 -79 -271 -188 -67 -144 -6 -321 137 -398 25 -14 35 -22 21
-18 -170 43 -252 270 -160 443 39 73 84 115 158 149 46 21 65 24 121 20 171
-13 302 -161 305 -343 1 -88 -20 -145 -85 -231 l-48 -64 118 0 118 0 244 -104
c327 -139 397 -167 379 -155 -8 5 -146 81 -306 167 -160 87 -299 164 -308 171
-22 18 -17 70 7 85 14 9 28 5 70 -17 113 -62 701 -359 692 -350 -9 8 -391 229
-557 322 -32 18 -58 34 -58 36 0 1 7 20 16 41 25 59 15 227 -19 315 -63 167
-162 252 -348 299 -212 55 -372 28 -554 -91 -47 -30 -77 -44 -84 -38 -6 5 0
-3 13 -18 l24 -26 49 35 c133 97 291 146 412 127 169 -26 332 -176 392 -361
17 -54 25 -66 27 -48 13 85 -105 276 -214 348 -60 40 -36 41 43 2 143 -72 243
-257 219 -410 -10 -69 -14 -72 -77 -60 -93 19 -95 21 -101 88 -12 127 -103
253 -226 310 -46 22 -72 27 -132 27 -65 0 -84 -5 -142 -34 -135 -68 -217 -182
-226 -316 -6 -89 10 -157 48 -215 40 -61 27 -65 -25 -7 -60 66 -86 139 -94
262 l-7 100 -17 -54 c-35 -112 -15 -257 52 -378 27 -49 28 -53 11 -68 -16 -14
-19 -10 -53 62 -53 114 -70 197 -65 322 5 98 3 110 -27 195 -82 229 -129 484
-128 701 0 223 50 485 138 720 49 130 170 370 245 485 33 49 58 90 56 90 -2 0
-30 -35 -63 -77z m278 -1983 c46 -13 114 -85 128 -136 16 -57 13 -83 -13 -141
-55 -118 -195 -149 -288 -65 -50 45 -68 85 -68 152 0 82 45 152 120 184 42 18
72 19 121 6z"/>
<path d="M4001 3813 c8 -10 40 -49 72 -88 181 -216 323 -484 392 -739 108
-397 91 -745 -56 -1151 -17 -47 -29 -89 -25 -92 15 -16 116 276 146 427 101
499 -35 1048 -369 1485 -56 74 -151 175 -164 175 -5 0 -3 -8 4 -17z"/>
<path d="M2608 3199 c-65 -9 -151 -48 -200 -90 l-33 -29 24 -19 24 -19 53 43
c47 39 100 62 177 79 25 6 37 30 20 39 -5 2 -34 0 -65 -4z"/>
<path d="M3507 2819 c-34 -41 -43 -106 -27 -183 26 -121 16 -151 -109 -306
-45 -56 -57 -65 -87 -66 -43 -1 -51 -9 -33 -30 12 -15 11 -16 -16 -11 -17 3
-52 9 -80 12 -131 18 -212 105 -215 235 l-2 45 -10 -35 c-14 -49 -4 -148 20
-195 47 -92 145 -146 297 -162 87 -10 90 -21 40 -117 -19 -37 -35 -78 -35 -92
0 -13 -6 -24 -12 -24 -35 0 -137 -62 -180 -108 -49 -53 -87 -117 -75 -128 4
-4 38 25 75 64 53 55 85 79 138 102 97 44 99 45 103 66 6 35 43 114 54 114 6
0 8 -24 4 -67 l-6 -68 22 76 c25 83 60 148 119 223 21 27 36 51 33 54 -9 9
-97 -71 -127 -117 l-30 -46 6 50 c8 64 71 191 150 302 l62 87 -29 75 c-33 86
-44 177 -28 235 6 22 9 41 7 43 -1 2 -15 -11 -29 -28z"/>
<path d="M2997 2643 c-26 -59 -43 -112 -34 -103 8 8 67 153 63 157 -2 2 -15
-23 -29 -54z"/>
<path d="M573 2490 c0 -30 2 -43 4 -27 2 15 2 39 0 55 -2 15 -4 2 -4 -28z"/>
<path d="M581 2403 c-1 -26 19 -126 25 -121 2 2 -3 35 -10 74 -8 38 -15 59
-15 47z"/>
<path d="M995 2355 c-173 -32 -405 -138 -373 -171 3 -2 47 16 99 40 193 91
389 128 577 107 56 -7 110 -15 118 -18 12 -4 15 -1 12 13 -2 15 -17 22 -68 30
-87 16 -279 15 -365 -1z"/>
<path d="M2945 2059 c-35 -49 -45 -131 -22 -175 14 -28 14 -31 -9 -57 -41 -48
-29 -59 25 -23 32 22 72 38 115 46 37 7 69 16 72 21 12 21 -99 24 -162 4 -17
-5 -23 0 -34 24 -18 45 -7 106 30 157 17 24 27 44 22 44 -5 0 -22 -18 -37 -41z"/>
<path d="M1280 1935 c13 -14 26 -25 28 -25 3 0 -5 11 -18 25 -13 14 -26 25
-28 25 -3 0 5 -11 18 -25z"/>
<path d="M1310 1896 c0 -2 8 -10 18 -17 15 -13 16 -12 3 4 -13 16 -21 21 -21
13z"/>
<path d="M3574 1808 c-16 -12 -64 -55 -106 -94 -78 -73 -100 -84 -228 -123
-81 -24 -38 -28 58 -6 90 21 134 47 182 107 24 29 64 72 89 95 49 46 52 57 5
21z"/>
<path d="M4390 1643 c-50 -100 -153 -257 -231 -353 -117 -144 -126 -157 -95
-130 122 108 386 500 374 556 -2 8 -23 -25 -48 -73z"/>
<path d="M2949 1531 c19 -17 50 -38 70 -47 33 -16 38 -16 95 4 l61 21 -68 -6
c-62 -5 -73 -3 -130 26 l-62 32 34 -30z"/>
<path d="M1510 783 c1 -13 307 -149 435 -193 350 -120 720 -137 1092 -49 102
24 280 82 409 135 167 67 216 92 209 104 -7 12 -2145 14 -2145 3z"/>
<path d="M3425 629 c-323 -136 -565 -189 -867 -189 -164 0 -343 22 -497 61
-63 16 -116 27 -118 25 -7 -7 187 -56 302 -77 164 -30 499 -33 655 -6 232 40
451 113 620 206 82 45 41 36 -95 -20z"/>
<path d="M1840 560 c8 -5 20 -10 25 -10 6 0 3 5 -5 10 -8 5 -19 10 -25 10 -5
0 -3 -5 5 -10z"/>
</g>
</svg>