<?xml version="1.0" standalone="no"?>
<!DOCTYPE svg PUBLIC "-//W3C//DTD SVG 20010904//EN"
 "http://www.w3.org/TR/2001/REC-SVG-20010904/DTD/svg10.dtd">
<svg version="1.0" xmlns="http://www.w3.org/2000/svg"
 width="512.000000pt" height="512.000000pt" viewBox="0 0 512.000000 512.000000"
 preserveAspectRatio="xMidYMid meet">
<metadata>
Created by potrace 1.16, written by Peter Selinger 2001-2019
</metadata>
<g transform="translate(0.000000,512.000000) scale(0.100000,-0.100000)"
fill="#000000" stroke="none">
<path d="M2603 4311 c-52 -13 -96 -45 -126 -89 -40 -59 -46 -106 -18 -142 16
-23 21 -43 21 -96 0 -36 10 -104 22 -150 12 -46 20 -85 17 -87 -23 -18 -166
-97 -177 -97 -21 0 -85 -36 -109 -62 -41 -44 -56 -96 -55 -191 0 -72 -3 -95
-20 -123 -11 -19 -26 -71 -34 -117 -7 -45 -23 -109 -35 -142 -19 -54 -20 -66
-10 -115 7 -30 12 -80 11 -110 -1 -31 4 -68 9 -83 13 -33 59 -57 125 -64 45
-4 54 -2 74 20 16 17 25 39 26 66 1 23 7 46 14 53 17 17 15 65 -4 76 -25 14
-23 115 5 186 l24 60 39 -115 c43 -128 44 -139 8 -294 -19 -85 -23 -128 -23
-285 0 -210 14 -287 77 -415 27 -55 36 -86 39 -141 3 -53 11 -84 32 -122 25
-47 27 -55 18 -106 -13 -73 -2 -139 41 -245 73 -181 71 -283 -8 -443 -52 -102
-60 -160 -27 -178 28 -15 136 -12 175 4 38 16 52 51 41 108 -6 34 3 89 26 145
11 26 10 43 -4 102 -16 65 -16 76 -2 145 9 42 22 92 29 113 20 58 27 124 16
168 -5 22 -7 41 -5 43 2 2 16 -8 31 -23 26 -26 26 -29 20 -113 -3 -48 -9 -108
-12 -134 -16 -123 96 -181 157 -81 17 27 24 57 27 117 3 51 11 95 23 118 22
43 25 107 7 131 -7 9 -34 25 -59 36 l-46 19 -5 60 c-8 81 -33 129 -84 161
l-42 27 46 55 c68 82 158 222 183 287 33 85 32 222 -4 317 -45 122 -87 276
-87 320 0 25 14 80 34 132 19 48 37 96 40 105 5 16 8 15 30 -7 21 -21 25 -34
24 -84 -1 -49 5 -68 32 -115 36 -64 34 -84 -10 -93 -38 -7 -66 -53 -50 -82 5
-11 10 -31 10 -45 0 -38 18 -69 54 -94 47 -32 98 -29 138 7 33 29 33 30 35
128 1 54 6 141 11 193 10 97 7 130 -20 230 -8 30 -21 78 -27 105 -7 28 -30 78
-52 112 -28 43 -39 68 -34 82 3 11 1 39 -5 63 -22 80 -92 148 -155 148 -17 0
-54 16 -85 35 -30 19 -59 35 -66 35 -6 0 -23 11 -38 25 -21 20 -26 33 -26 75
0 29 7 61 16 74 18 28 37 195 29 248 -7 39 -65 102 -121 131 -38 19 -110 28
-151 18z m136 -44 c36 -18 35 -30 -3 -51 -28 -15 -40 -16 -72 -7 -53 15 -76
12 -39 -4 l30 -13 -30 -12 c-22 -9 -40 -9 -67 0 -49 14 -55 27 -26 57 50 50
140 63 207 30z m82 -63 c20 -21 24 -36 24 -86 -1 -50 -4 -62 -23 -77 -20 -15
-48 -89 -37 -99 2 -2 13 14 25 37 11 23 23 41 25 41 14 0 3 -71 -14 -87 -15
-15 -19 -38 -24 -138 -4 -96 -3 -111 5 -73 l10 47 24 -28 c21 -26 24 -39 25
-122 1 -52 -3 -105 -9 -119 -24 -61 -101 -96 -190 -87 -117 12 -162 95 -134
251 10 54 27 55 53 4 21 -41 22 -42 30 -20 5 14 5 31 -1 42 -14 27 -13 30 15
30 23 0 25 -4 25 -41 0 -36 -2 -40 -15 -29 -20 17 -19 8 5 -33 l21 -35 -48 4
-48 4 38 -10 c21 -6 48 -15 59 -21 19 -10 20 -9 13 7 -12 29 -18 110 -11 139
4 14 23 43 42 65 43 47 33 52 -22 10 -29 -22 -50 -30 -81 -30 -47 0 -49 1 -58
52 l-7 37 53 4 54 3 -57 2 c-57 2 -57 2 -67 40 -6 20 -11 54 -11 75 0 31 3 37
21 37 20 0 21 -4 16 -60 -5 -58 -4 -60 18 -60 13 0 27 5 31 11 4 7 -2 9 -17 7
-26 -3 -26 0 -13 80 4 29 2 34 -24 43 -28 10 -30 13 -25 52 5 43 28 71 50 63
7 -3 36 6 65 19 29 14 60 25 68 25 8 0 29 11 45 25 38 31 46 31 76 -1z m-278
-31 l32 -18 -33 -3 c-19 -2 -38 -11 -45 -23 -6 -10 -16 -19 -21 -19 -12 0 2
62 17 72 16 10 13 11 50 -9z m360 -525 c9 -76 44 -202 78 -281 l29 -69 -18
-42 c-37 -82 -102 -114 -205 -102 l-52 6 37 -20 c40 -21 90 -28 123 -17 16 5
26 -2 49 -39 l28 -45 -17 -44 c-9 -25 -26 -52 -38 -61 l-22 -16 23 5 c12 3 22
2 22 -2 0 -21 -26 -81 -53 -121 l-30 -45 35 33 c39 37 48 34 49 -17 0 -20 4
-45 8 -56 8 -19 9 -18 22 8 l13 28 12 -42 c7 -24 12 -44 11 -45 -7 -6 -187
-64 -198 -64 -8 1 7 12 34 26 65 34 59 40 -7 7 -30 -15 -53 -30 -51 -33 8 -13
-110 -33 -195 -33 -47 0 -102 5 -124 12 -35 12 -38 15 -32 43 3 17 6 42 6 57
1 24 2 24 21 -11 23 -45 34 -49 24 -10 -4 15 -6 68 -6 118 1 55 -5 110 -14
142 -17 55 -18 215 -2 205 14 -9 71 7 97 27 l25 19 -40 -6 c-32 -4 -46 0 -69
18 -35 27 -76 112 -76 156 0 39 77 344 91 358 6 6 7 -25 3 -82 -6 -80 -4 -96
15 -135 31 -65 84 -92 181 -92 61 -1 83 4 120 24 68 38 82 73 78 197 -4 107 5
130 15 41z m128 -8 c97 0 169 -130 130 -233 l-10 -25 -41 20 c-49 25 -59 18
-67 -42 l-6 -43 -14 28 c-30 57 -93 277 -93 326 0 6 15 1 34 -10 18 -12 49
-21 67 -21z m-627 -139 c-36 -135 -38 -140 -60 -135 -48 12 -145 -95 -144
-158 1 -18 6 -13 24 22 30 57 58 82 88 78 18 -2 24 -10 26 -38 7 -70 -38 -210
-71 -223 -8 -3 -20 -1 -28 4 -27 17 -32 9 -10 -15 23 -24 17 -42 -9 -25 -33
20 -44 9 -18 -18 15 -16 30 -40 33 -56 5 -17 16 -29 31 -33 13 -3 24 -13 24
-21 0 -11 -7 -13 -32 -7 -49 12 -77 8 -99 -12 -25 -23 -35 -10 -44 56 -5 34
-1 63 14 108 12 34 25 91 30 128 7 43 19 79 35 103 24 35 26 43 20 112 -12
134 38 224 138 249 24 6 52 15 63 19 11 5 21 7 23 6 2 -2 -14 -66 -34 -144z
m831 -182 c8 -15 28 -80 46 -145 28 -108 31 -128 25 -219 -3 -55 -8 -110 -12
-122 l-6 -22 -29 21 c-23 17 -29 29 -29 59 0 37 -14 61 -22 37 -2 -6 -12 15
-21 49 -18 65 -13 98 20 136 18 19 18 18 -19 35 -20 8 -38 34 -67 94 -21 46
-42 98 -46 116 l-7 33 43 -18 c42 -16 43 -16 57 6 l15 22 19 -28 c10 -15 25
-40 33 -54z m-207 -172 c-12 -37 -25 -67 -29 -67 -4 0 -14 11 -23 25 -16 24
-15 26 19 71 19 25 35 51 35 57 0 7 5 5 10 -4 6 -11 2 -37 -12 -82z m-763
-306 c28 -10 48 -23 45 -27 -6 -10 -18 -10 -75 -1 l-40 6 48 -21 c47 -22 63
-48 29 -48 -11 0 -40 6 -65 14 -26 8 -47 12 -47 10 0 -10 87 -44 112 -44 20 0
26 -4 22 -15 -8 -19 -37 -19 -97 -1 -26 8 -47 10 -47 6 0 -12 58 -30 97 -30
23 0 32 -4 27 -11 -10 -16 -94 -6 -127 15 -20 14 -27 26 -27 51 0 35 23 99 32
90 3 -3 11 1 18 10 16 20 34 19 95 -4z m1001 -52 c26 -27 29 -37 28 -87 -2
-63 -25 -93 -73 -91 -25 1 -24 1 6 10 18 5 35 15 39 21 5 8 2 9 -10 5 -10 -4
-35 -10 -56 -13 -46 -8 -63 11 -17 20 36 7 77 32 77 46 0 6 -15 1 -32 -10 -40
-24 -98 -27 -98 -5 0 9 12 20 27 26 15 6 31 15 35 22 11 18 -2 28 -22 17 -56
-30 -67 5 -12 42 50 35 73 34 108 -3z m-252 -216 c88 -135 44 -324 -116 -497
l-74 -79 -45 26 c-39 23 -57 27 -123 27 -76 0 -77 1 -71 23 31 104 211 328
302 376 21 11 31 20 23 20 -30 1 -116 -58 -173 -118 -32 -33 -65 -61 -72 -61
-7 0 -28 12 -46 27 l-33 28 7 -25 c21 -73 20 -108 -3 -146 -13 -20 -33 -62
-46 -92 l-22 -55 -25 49 c-45 89 -59 152 -64 299 l-6 140 119 1 c121 2 221 21
364 73 74 27 76 26 104 -16z m-246 -569 c24 -15 29 -39 11 -50 -28 -17 -59
-110 -59 -177 0 -60 5 -76 40 -143 35 -67 40 -84 40 -143 0 -36 -9 -98 -20
-136 -11 -39 -23 -105 -26 -147 -6 -62 -10 -78 -23 -78 -31 0 -40 17 -60 110
-12 52 -35 138 -53 190 -44 130 -45 274 -2 216 27 -37 14 3 -16 51 -57 89 -71
173 -47 268 13 47 15 50 53 56 53 9 134 0 162 -17z m124 -11 c-38 -48 -112
-120 -112 -109 0 8 130 146 137 146 3 0 -9 -17 -25 -37z m-9 -162 c18 -17 35
-49 48 -96 11 -38 24 -80 29 -92 14 -34 -1 -28 -45 18 -42 43 -112 85 -123 74
-4 -4 4 -15 18 -24 63 -41 130 -114 117 -127 -2 -3 -30 6 -61 20 -47 21 -60
32 -76 68 -27 60 -27 145 1 174 25 26 52 22 92 -15z m149 -243 c7 -20 3 -40
-13 -78 -21 -49 -23 -51 -58 -48 -31 3 -36 7 -39 30 -3 22 0 26 17 21 12 -3
33 2 47 12 23 15 26 22 21 57 -6 45 11 49 25 6z m32 -4 c11 -28 6 -74 -10
-105 -8 -17 -15 -54 -15 -82 0 -73 -15 -123 -49 -160 -24 -26 -32 -30 -47 -21
-31 19 -44 56 -40 111 2 29 7 56 10 60 4 3 23 1 43 -5 29 -9 33 -8 24 3 -6 8
-21 15 -33 17 -12 2 -23 11 -25 20 -3 13 6 17 40 20 40 3 45 6 66 48 14 27 21
58 19 78 -3 34 7 43 17 16z m-298 -561 c-9 -20 -16 -60 -16 -96 0 -79 -14
-102 -53 -88 -16 6 -50 11 -76 11 l-48 0 45 90 45 90 41 0 c41 0 66 13 66 34
0 6 -5 5 -12 -2 -7 -7 -29 -12 -50 -12 -36 0 -38 2 -38 30 0 29 0 30 45 23 34
-4 45 -2 46 8 0 8 5 -2 11 -21 7 -26 6 -42 -6 -67z m-74 -206 c4 -8 14 -7 32
1 27 12 32 7 16 -18 -7 -11 -29 -15 -87 -15 -68 0 -78 2 -81 19 -2 10 2 23 10
27 16 11 101 0 110 -14z"/>
<path d="M2722 4109 c-2 -51 0 -57 24 -68 38 -17 50 -2 15 20 -24 15 -31 26
-34 61 -3 39 -4 38 -5 -13z"/>
<path d="M2607 4023 c-17 -16 -3 -23 46 -23 48 1 50 2 33 15 -20 15 -67 20
-79 8z"/>
<path d="M2762 3608 c-8 -10 0 -12 39 -10 27 2 49 8 49 13 0 14 -76 11 -88 -3z"/>
<path d="M2680 3034 c0 -8 -6 -14 -14 -14 -7 0 -44 -22 -81 -50 -87 -64 -64
-65 29 -1 69 47 72 48 107 36 20 -7 50 -20 67 -29 18 -9 32 -12 32 -7 0 11
-33 33 -92 59 -39 17 -48 18 -48 6z"/>
<path d="M2688 2893 c5 -119 9 -131 10 -30 1 53 -1 97 -5 97 -5 0 -7 -30 -5
-67z"/>
<path d="M2648 1908 c12 -12 25 -18 29 -14 4 4 -1 14 -11 22 -31 22 -43 17
-18 -8z"/>
<path d="M2651 1812 c-17 -40 -28 -47 -48 -31 -13 11 -15 11 -12 -6 3 -12 12
-20 23 -20 24 0 59 46 54 71 -3 15 -6 12 -17 -14z"/>
</g>
</svg>