<svg width="54" height="54" viewBox="0 0 54 54" fill="none" xmlns="http://www.w3.org/2000/svg">
<path d="M31.8825 23.5352V28.4402" stroke="#808080" stroke-width="2" stroke-linecap="round" stroke-linejoin="round"/>
<path d="M16.4925 11.7451H14.5575C12.7016 11.7451 10.9218 12.4824 9.60952 13.7946C8.29723 15.1069 7.56 16.8868 7.56 18.7426V43.6276C7.56 45.4835 8.29723 47.2633 9.60952 48.5756C10.9218 49.8879 12.7016 50.6251 14.5575 50.6251H39.4425C41.2984 50.6251 43.0782 49.8879 44.3905 48.5756C45.7028 47.2633 46.44 45.4835 46.44 43.6276V18.7426C46.44 16.8868 45.7028 15.1069 44.3905 13.7946C43.0782 12.4824 41.2984 11.7451 39.4425 11.7451H37.485V14.3326C37.485 14.5394 37.4443 14.7443 37.3651 14.9353C37.286 15.1264 37.1699 15.3001 37.0237 15.4463C36.8774 15.5926 36.7038 15.7086 36.5127 15.7877C36.3216 15.8669 36.1168 15.9076 35.91 15.9076H18C17.7913 15.9106 17.5841 15.8721 17.3904 15.7942C17.1967 15.7164 17.0204 15.6009 16.8717 15.4543C16.7231 15.3078 16.6051 15.1332 16.5245 14.9406C16.4439 14.748 16.4025 14.5414 16.4025 14.3326L16.4925 11.7451Z" stroke="#808080" stroke-width="2" stroke-linecap="round" stroke-linejoin="round"/>
<path d="M22.1175 23.5352V28.4402" stroke="#808080" stroke-width="2" stroke-linecap="round" stroke-linejoin="round"/>
<path d="M34.02 25.9873H19.98" stroke="#808080" stroke-width="2" stroke-linecap="round" stroke-linejoin="round"/>
<path d="M34.02 36.2476H19.98" stroke="#808080" stroke-width="2" stroke-linecap="round" stroke-linejoin="round"/>
<path d="M34.02 43.0874H19.98" stroke="#808080" stroke-width="2" stroke-linecap="round" stroke-linejoin="round"/>
<path d="M16.4925 14.3325V11.25C16.4803 11.0401 16.5097 10.8299 16.579 10.6315C16.6482 10.433 16.7559 10.2501 16.896 10.0933C17.036 9.93657 17.2056 9.80898 17.3951 9.71789C17.5845 9.6268 17.7901 9.57399 18 9.5625H21.9825C21.9482 9.21083 21.9482 8.85666 21.9825 8.505C21.9825 7.14444 22.523 5.8396 23.485 4.87754C24.4471 3.91548 25.7519 3.375 27.1125 3.375C28.4731 3.375 29.7779 3.91548 30.74 4.87754C31.702 5.8396 32.2425 7.14444 32.2425 8.505C32.2768 8.85666 32.2768 9.21083 32.2425 9.5625H36C36.2087 9.56248 36.4154 9.60395 36.608 9.68451C36.8005 9.76506 36.9752 9.88309 37.1217 10.0317C37.2683 10.1804 37.3838 10.3567 37.4616 10.5504C37.5395 10.7441 37.578 10.9513 37.575 11.16V14.3325C37.575 14.5393 37.5343 14.7441 37.4551 14.9352C37.376 15.1263 37.2599 15.2999 37.1137 15.4462C36.9674 15.5924 36.7938 15.7085 36.6027 15.7876C36.4116 15.8668 36.2068 15.9075 36 15.9075H18C17.5941 15.8901 17.2106 15.7165 16.9297 15.423C16.6488 15.1295 16.4921 14.7388 16.4925 14.3325Z" stroke="#808080" stroke-width="2" stroke-linecap="round" stroke-linejoin="round"/>
</svg>
