<svg width="54" height="54" viewBox="0 0 54 54" fill="none" xmlns="http://www.w3.org/2000/svg">
<path d="M20.25 40.7477C16.56 40.0727 14.1975 37.8227 14.1975 34.4927C14.187 33.1483 14.6243 31.8387 15.4406 30.7704C16.2569 29.7022 17.4056 28.9361 18.7055 28.5931C20.0054 28.25 21.3826 28.3496 22.6196 28.876C23.8567 29.4024 24.8833 30.3257 25.5375 31.5002C26.3578 31.1012 27.2578 30.8935 28.17 30.8927C28.8752 30.8968 29.5748 31.0185 30.24 31.2527C29.4904 28.9036 29.4904 26.3794 30.24 24.0302V22.5902C29.5716 22.8914 28.8469 23.0472 28.1137 23.0472C27.3806 23.0472 26.6559 22.8914 25.9875 22.5902C25.2661 22.0998 24.7446 21.3669 24.5175 20.5247C24.2904 19.6825 24.3729 18.7868 24.75 18.0002C25.2382 17.0204 26.0947 16.2738 27.132 15.9238C28.1693 15.5738 29.3029 15.6489 30.285 16.1327C31.7739 16.6782 33.1146 17.5643 34.2 18.7202C34.515 18.9902 34.8525 19.2827 35.19 19.6202C37.076 21.4702 38.4664 23.7649 39.2331 26.2931C39.9998 28.8213 40.1182 31.5018 39.5775 34.0877C39.3782 35.2791 39.0848 36.4527 38.7 37.5977C38.07 39.5777 35.6625 40.5227 32.805 40.9502C28.6197 41.1322 24.4273 41.0645 20.25 40.7477Z" stroke="#808080" stroke-width="2" stroke-linecap="round" stroke-linejoin="round"/>
<path d="M25.5375 31.5C24.8281 31.8888 24.2725 32.5078 23.9625 33.255" stroke="#808080" stroke-width="2" stroke-linecap="round" stroke-linejoin="round"/>
<path d="M30.2625 31.3198C30.2625 31.3198 31.3425 31.5673 32.2875 33.3223" stroke="#808080" stroke-width="2" stroke-linecap="round" stroke-linejoin="round"/>
<path d="M49.2075 14.2199C49.2015 12.0994 48.355 10.0678 46.8535 8.57054C45.352 7.07323 43.318 6.23241 41.1975 6.23242H12.8025C10.682 6.23241 8.64804 7.07323 7.14651 8.57054C5.64499 10.0678 4.79846 12.0994 4.7925 14.2199V42.7499C4.82791 44.8508 5.68743 46.8537 7.18577 48.3268C8.68412 49.7999 10.7013 50.6252 12.8025 50.6249H41.1975C43.2987 50.6252 45.3159 49.7999 46.8142 48.3268C48.3126 46.8537 49.1721 44.8508 49.2075 42.7499V14.2199Z" stroke="#808080" stroke-width="2" stroke-linecap="round" stroke-linejoin="round"/>
<path d="M36.2475 3.375V9" stroke="#808080" stroke-width="2" stroke-linecap="round" stroke-linejoin="round"/>
<path d="M17.7525 3.375V9" stroke="#808080" stroke-width="2" stroke-linecap="round" stroke-linejoin="round"/>
</svg>
