<svg width="54" height="54" viewBox="0 0 54 54" fill="none" xmlns="http://www.w3.org/2000/svg">
<path d="M18.2925 50.625H35.7075V36.81C35.7075 35.7717 35.295 34.7759 34.5608 34.0417C33.8266 33.3075 32.8308 32.895 31.7925 32.895H22.2075C21.1692 32.895 20.1734 33.3075 19.4392 34.0417C18.705 34.7759 18.2925 35.7717 18.2925 36.81V50.625Z" stroke="#808080" stroke-width="2" stroke-linecap="round" stroke-linejoin="round"/>
<path d="M27 50.4675V32.895" stroke="#808080" stroke-width="2" stroke-linecap="round" stroke-linejoin="round"/>
<path d="M3.7575 19.6198V18.9448" stroke="#808080" stroke-width="2" stroke-linecap="round" stroke-linejoin="round"/>
<path d="M32.8275 11.4976V17.3476" stroke="#808080" stroke-width="2" stroke-linecap="round" stroke-linejoin="round"/>
<path d="M21.1725 11.4976V17.3476" stroke="#808080" stroke-width="2" stroke-linecap="round" stroke-linejoin="round"/>
<path d="M35.3925 14.4224H18.6075" stroke="#808080" stroke-width="2" stroke-linecap="round" stroke-linejoin="round"/>
<path d="M50.2425 24.93H3.7575V18.945C3.9316 14.7585 5.71661 10.8012 8.73964 7.89976C11.7627 4.99832 15.7899 3.37718 19.98 3.375H34.02C38.2101 3.37718 42.2373 4.99832 45.2604 7.89976C48.2834 10.8012 50.0684 14.7585 50.2425 18.945V24.93Z" stroke="#808080" stroke-width="2" stroke-linecap="round" stroke-linejoin="round"/>
<path d="M50.2425 24.9302V48.6902C50.2455 48.9432 50.1982 49.1943 50.1034 49.429C50.0086 49.6636 49.8682 49.8771 49.6904 50.0571C49.5125 50.2371 49.3006 50.38 49.0671 50.4775C48.8336 50.575 48.5831 50.6252 48.33 50.6252H5.58C5.32694 50.6252 5.0764 50.575 4.84288 50.4775C4.60937 50.38 4.39753 50.2371 4.21964 50.0571C4.04175 49.8771 3.90135 49.6636 3.80657 49.429C3.71179 49.1943 3.66452 48.9432 3.6675 48.6902V24.9302H50.2425Z" stroke="#808080" stroke-width="2" stroke-linecap="round" stroke-linejoin="round"/>
</svg>
