<svg width="62" height="54" viewBox="0 0 62 54" fill="none" xmlns="http://www.w3.org/2000/svg">
<path d="M22.785 14.4899H38.0008C38.3965 14.4676 38.7935 14.4676 39.1892 14.4899C39.5935 14.4676 39.999 14.4676 40.4033 14.4899C43.0929 14.6778 45.6275 15.6625 47.585 17.2799C50.1683 19.5299 53.1392 25.3574 53.1392 32.5349C53.1392 39.7124 50.22 45.6299 47.585 47.7899C45.6138 49.3895 43.0868 50.3712 40.4033 50.5799H39.1892H38.0008H22.785C25.4715 50.3815 28.0022 49.3983 29.9667 47.7899C32.55 45.5399 35.5208 39.7124 35.5208 32.5349V32.1749C35.5208 25.1549 32.55 19.3949 29.9667 17.2799C28.0151 15.6547 25.4773 14.6688 22.785 14.4899Z" stroke="#808080" stroke-width="2" stroke-linecap="round" stroke-linejoin="round"/>
<path d="M38.0783 45.3374H41.9275" stroke="#808080" stroke-width="2" stroke-linecap="round" stroke-linejoin="round"/>
<path d="M40.7392 39.0151H45.5958" stroke="#808080" stroke-width="2" stroke-linecap="round" stroke-linejoin="round"/>
<path d="M41.3333 32.6924H43.9167" stroke="#808080" stroke-width="2" stroke-linecap="round" stroke-linejoin="round"/>
<path d="M40.7392 26.3701H45.5958" stroke="#808080" stroke-width="2" stroke-linecap="round" stroke-linejoin="round"/>
<path d="M38.2592 20.0698H41.9275" stroke="#808080" stroke-width="2" stroke-linecap="round" stroke-linejoin="round"/>
<path d="M17.05 32.5349C17.0525 31.3845 17.1301 30.2351 17.2825 29.0924C17.4546 27.6138 17.8186 26.157 18.3675 24.7499M17.05 32.5349C17.009 35.1893 17.4538 37.8324 18.3675 40.3649C18.8583 41.5349 20.3567 44.4599 22.5008 43.4024C22.8037 43.2368 23.0598 43.0137 23.25 42.7499C23.838 42.0071 24.3236 41.2066 24.6967 40.3649C25.2193 39.2339 25.6004 38.0571 25.8333 36.8549C26.0822 35.4252 26.2032 33.9809 26.195 32.5349C26.204 31.0889 26.0831 29.6445 25.8333 28.2149M17.05 32.5349C17.0175 29.8958 17.4621 27.2686 18.3675 24.7499M25.8333 28.2149L25.6783 27.2924C25.4467 26.4298 25.1533 25.5806 24.8 24.7499M25.8333 28.2149C25.6256 27.0322 25.2793 25.8711 24.8 24.7499M24.8 24.7499C24.3092 23.5799 22.8367 20.6549 20.6667 21.7349C20.3331 21.8882 20.0421 22.1032 19.8142 22.3649C19.2312 23.1104 18.746 23.9104 18.3675 24.7499M27.7708 15.9299C30.5267 17.6335 32.5679 20.075 33.5833 22.8824C36.0122 29.0896 36.0122 35.8227 33.5833 42.0299C31.8008 46.5299 28.2875 50.1299 22.63 50.5799C16.4558 51.0749 12.2967 46.8449 10.5142 42.0299C9.10728 38.4512 8.51071 34.6689 8.7575 30.8924C8.93245 28.1624 9.54102 25.4668 10.5658 22.8824C12.245 19.0349 15.5 15.0299 20.3825 14.4899C22.964 14.1796 25.5874 14.6909 27.7708 15.9299Z" stroke="#808080" stroke-width="2" stroke-linecap="round" stroke-linejoin="round"/>
<path d="M27.7708 15.93C25.5883 14.6891 22.9641 14.1777 20.3825 14.49C15.3967 15.03 12.245 18.99 10.7208 22.8825C9.69602 25.4669 9.08745 28.1626 8.9125 30.8925V3.375H27.7967L27.7708 15.93Z" stroke="#808080" stroke-width="2" stroke-linecap="round" stroke-linejoin="round"/>
<path d="M8.9125 8.86523H27.7708" stroke="#808080" stroke-width="2" stroke-linecap="round" stroke-linejoin="round"/>
</svg>
