<svg width="54" height="54" viewBox="0 0 54 54" fill="none" xmlns="http://www.w3.org/2000/svg">
<path d="M42.9075 9.1125C42.9075 7.59471 42.3061 6.13875 41.235 5.06341C40.1639 3.98806 38.7103 3.38095 37.1925 3.375H16.8075C15.2897 3.38095 13.8361 3.98806 12.765 5.06341C11.6939 6.13875 11.0925 7.59471 11.0925 9.1125V45C11.1219 46.4982 11.7362 47.9255 12.8042 48.9766C13.8722 50.0278 15.309 50.6194 16.8075 50.625H37.1925C38.691 50.6194 40.1278 50.0278 41.1958 48.9766C42.2638 47.9255 42.8781 46.4982 42.9075 45V9.1125Z" stroke="#808080" stroke-width="2" stroke-linecap="round" stroke-linejoin="round"/>
<path d="M37.5075 10.8223H16.4925V27.8773H37.5075V10.8223Z" stroke="#808080" stroke-width="2" stroke-linecap="round" stroke-linejoin="round"/>
<path d="M27 45.9227C30.3924 45.9227 33.1425 43.1726 33.1425 39.7802C33.1425 36.3878 30.3924 33.6377 27 33.6377C23.6076 33.6377 20.8575 36.3878 20.8575 39.7802C20.8575 43.1726 23.6076 45.9227 27 45.9227Z" stroke="#808080" stroke-width="2" stroke-linecap="round" stroke-linejoin="round"/>
<circle cx="27" cy="39.7798" r="2.25" fill="#808080"/>
</svg>
